<svg width="432" height="390" viewBox="0 0 432 390" fill="none" xmlns="http://www.w3.org/2000/svg">
<circle cx="334" cy="135" r="50" fill="#B42F2F"/>
<circle cx="277.5" cy="301.5" r="88.5" fill="#B8B4B4"/>
<circle cx="408" cy="209" r="24" fill="#161717"/>
<path d="M237 118.5C237 183.946 183.946 237 118.5 237C53.0543 237 0 183.946 0 118.5C0 53.0543 53.0543 0 118.5 0C183.946 0 237 53.0543 237 118.5Z" fill="#00877A"/>
<path d="M52.239 353.175H21.587L14.894 375H7.91L25.467 318.255C26.8897 313.664 28.4093 310.495 30.026 308.749C31.7073 306.938 34.003 306.033 36.913 306.033C39.823 306.033 42.1187 306.938 43.8 308.749C45.4813 310.495 47.0333 313.664 48.456 318.255L66.013 375H58.932L52.239 353.175ZM50.59 347.743L41.569 318.352C40.8577 316.153 40.1787 314.634 39.532 313.793C38.8853 312.952 38.0123 312.532 36.913 312.532C35.8783 312.532 35.0377 312.952 34.391 313.793C33.7443 314.634 33.0653 316.153 32.354 318.352L23.333 347.743H50.59ZM114.941 366.755C114.941 367.919 115.135 368.889 115.523 369.665C115.976 370.376 116.784 371.217 117.948 372.187L113.68 376.067C112.063 375.162 110.867 373.998 110.091 372.575C109.315 371.088 108.862 369.568 108.733 368.016C105.37 373.383 100.229 376.067 93.3102 376.067C89.3008 376.067 85.7765 375.162 82.7372 373.351C79.7625 371.476 77.4345 368.857 75.7532 365.494C74.1365 362.131 73.3282 358.219 73.3282 353.757V350.653C73.3282 346.191 74.1365 342.279 75.7532 338.916C77.4345 335.553 79.7625 332.967 82.7372 331.156C85.7765 329.281 89.3008 328.343 93.3102 328.343C96.6082 328.343 99.5505 328.99 102.137 330.283C104.788 331.576 106.89 333.419 108.442 335.812V314.084C108.442 312.92 108.248 311.982 107.86 311.271C107.472 310.56 106.664 309.654 105.435 308.555L109.897 304.772C111.772 305.807 113.066 307.035 113.777 308.458C114.553 309.881 114.941 311.821 114.941 314.278V366.755ZM108.442 344.057C107.343 340.565 105.661 337.946 103.398 336.2C101.135 334.454 98.1278 333.581 94.3772 333.581C89.9798 333.581 86.4555 335.133 83.8042 338.237C81.1528 341.341 79.8272 345.48 79.8272 350.653V353.757C79.8272 358.93 81.1528 363.069 83.8042 366.173C86.4555 369.277 89.9798 370.829 94.3772 370.829C98.1278 370.829 101.135 369.956 103.398 368.21C105.661 366.464 107.343 363.845 108.442 360.353V344.057ZM166.016 366.755C166.016 367.919 166.21 368.889 166.598 369.665C167.051 370.376 167.859 371.217 169.023 372.187L164.658 376.067C163.042 375.162 161.845 374.127 161.069 372.963C160.293 371.799 159.841 370.279 159.711 368.404C158.03 370.861 155.734 372.769 152.824 374.127C149.914 375.42 146.649 376.067 143.027 376.067C138.113 376.067 134.33 374.935 131.678 372.672C129.027 370.344 127.701 367.014 127.701 362.681C127.701 358.672 129.092 355.535 131.872 353.272C134.653 351.009 138.856 349.554 144.482 348.907L152.048 348.034C154.182 347.775 155.767 347.452 156.801 347.064C157.901 346.676 158.644 346.126 159.032 345.415C159.42 344.639 159.582 343.572 159.517 342.214C158.935 336.2 154.732 333.193 146.907 333.193C143.997 333.193 141.508 333.678 139.438 334.648C137.369 335.553 135.591 337.008 134.103 339.013L129.641 335.715C132.681 330.8 138.436 328.343 146.907 328.343C153.115 328.343 157.836 329.669 161.069 332.32C164.367 334.971 166.016 338.787 166.016 343.766V366.755ZM144.482 371.023C149.009 371.023 152.663 369.859 155.443 367.531C158.224 365.203 159.614 362.131 159.614 358.316V350.459C158.838 351.041 157.901 351.494 156.801 351.817C155.702 352.076 154.182 352.302 152.242 352.496L145.064 353.272C141.378 353.725 138.565 354.759 136.625 356.376C134.75 357.928 133.812 359.997 133.812 362.584C133.812 368.21 137.369 371.023 144.482 371.023Z" fill="black"/>
</svg>
